<?xml version="1.0" encoding="UTF-8" standalone="no"?>
<svg
   xmlns:dc="http://purl.org/dc/elements/1.1/"
   xmlns:cc="http://creativecommons.org/ns#"
   xmlns:rdf="http://www.w3.org/1999/02/22-rdf-syntax-ns#"
   xmlns:svg="http://www.w3.org/2000/svg"
   xmlns="http://www.w3.org/2000/svg"
   xmlns:sodipodi="http://sodipodi.sourceforge.net/DTD/sodipodi-0.dtd"
   xmlns:inkscape="http://www.inkscape.org/namespaces/inkscape"
   version="1.1"
   id="svg2"
   xml:space="preserve"
   width="75.248665"
   height="75.848267"
   viewBox="0 0 75.248665 75.848267"
   sodipodi:docname="design.ai"><metadata
     id="metadata8"><rdf:RDF><cc:Work
         rdf:about=""><dc:format>image/svg+xml</dc:format><dc:type
           rdf:resource="http://purl.org/dc/dcmitype/StillImage" /></cc:Work></rdf:RDF></metadata><defs
     id="defs6"><clipPath
       clipPathUnits="userSpaceOnUse"
       id="clipPath18"><path
         d="M 0,56.886 H 56.437 V 0 H 0 Z"
         id="path16" /></clipPath></defs><sodipodi:namedview
     pagecolor="#ffffff"
     bordercolor="#666666"
     borderopacity="1"
     objecttolerance="10"
     gridtolerance="10"
     guidetolerance="10"
     inkscape:pageopacity="0"
     inkscape:pageshadow="2"
     inkscape:window-width="640"
     inkscape:window-height="480"
     id="namedview4" /><g
     id="g10"
     inkscape:groupmode="layer"
     inkscape:label="design"
     transform="matrix(1.3333333,0,0,-1.3333333,0,75.848267)"><g
       id="g12"><g
         id="g14"
         clip-path="url(#clipPath18)"><g
           id="g20"
           transform="translate(54.6396,4.4932)"><path
             d="m 0,0 c -0.004,-1.476 -1.221,-2.692 -2.696,-2.695 h -47.451 c -1.476,0.003 -2.692,1.219 -2.695,2.695 v 46.093 l 4.006,-11.708 c 0.292,-0.846 0.808,-1.593 1.452,-2.213 0.236,-0.228 0.488,-0.44 0.754,-0.63 0.995,-0.708 2.182,-1.164 3.403,-1.167 h 10.025 v 1.797 h -10.025 c -0.755,-0.003 -1.627,0.307 -2.358,0.832 -0.733,0.522 -1.308,1.246 -1.55,1.962 l -4.593,13.418 c -0.094,0.279 -0.134,0.531 -0.134,0.75 0.005,0.46 0.156,0.783 0.421,1.032 0.138,0.128 0.322,0.237 0.551,0.313 0.09,0.026 0.179,0.053 0.272,0.071 0.036,0.007 0.073,0.012 0.11,0.016 0.049,0.008 0.101,0.008 0.151,0.013 0.063,0.005 0.124,0.014 0.192,0.015 0.007,0 0.012,10e-4 0.018,10e-4 h 47.451 c 0.007,0 0.012,-10e-4 0.019,-10e-4 0.058,-10e-4 0.109,-0.008 0.163,-0.013 0.06,-0.004 0.121,-0.005 0.18,-0.015 0.036,-0.004 0.072,-0.009 0.108,-0.016 h 0.002 c 0.361,-0.068 0.632,-0.209 0.823,-0.384 0.263,-0.249 0.415,-0.572 0.42,-1.032 0,-0.22 -0.04,-0.472 -0.134,-0.75 L -5.709,34.966 c -0.24,-0.716 -0.815,-1.44 -1.55,-1.962 -0.73,-0.525 -1.601,-0.835 -2.356,-0.832 H -19.64 v -1.797 h 10.025 c 1.221,0.003 2.408,0.459 3.402,1.167 0.266,0.19 0.519,0.402 0.755,0.63 0.644,0.62 1.159,1.367 1.45,2.213 L 0,46.092 v 0.001 z m 1.744,48.541 c -0.26,1.804 -1.592,3.261 -3.331,3.706 -0.035,0.009 -0.07,0.02 -0.107,0.028 -0.033,0.008 -0.066,0.014 -0.099,0.021 -0.024,0.005 -0.049,0.011 -0.076,0.016 -0.001,0 -0.002,0.001 -0.002,0.001 -0.103,0.019 -0.205,0.035 -0.309,0.047 l -0.016,0.003 c -0.023,10e-4 -0.044,0.006 -0.067,0.007 -0.141,0.015 -0.286,0.024 -0.433,0.023 h -23.725 -23.726 c -0.01,0 -0.019,-10e-4 -0.027,-10e-4 -0.135,-0.001 -0.268,-0.009 -0.4,-0.021 -0.001,0 -0.002,-0.001 -0.003,-0.001 -0.018,-10e-4 -0.035,-0.004 -0.052,-0.007 -0.016,-10e-4 -0.03,-0.003 -0.046,-0.005 -0.099,-0.011 -0.195,-0.027 -0.293,-0.045 -0.048,-0.009 -0.096,-0.02 -0.145,-0.03 -0.01,-0.003 -0.022,-0.005 -0.033,-0.008 -0.003,0 -0.004,-10e-4 -0.006,-0.002 -0.035,-0.007 -0.069,-0.017 -0.103,-0.025 -0.437,-0.112 -0.849,-0.288 -1.226,-0.519 -1.29,-0.789 -2.157,-2.208 -2.159,-3.83 V 34.869 34.858 0 c 0.003,-2.478 2.016,-4.49 4.493,-4.493 H -2.696 C -0.219,-4.49 1.793,-2.478 1.797,0 v 34.866 0.003 13.03 c 0,0.218 -0.022,0.431 -0.053,0.642"
             style="fill:#2c4482;fill-opacity:1;fill-rule:nonzero;stroke:none"
             id="path22" /></g><path
           d="M 31.454,29.327 H 24.982 V 41.13 h 6.472 z m -3.236,-4.493 c -1.603,0.002 -2.927,1.167 -3.186,2.696 h 6.372 c -0.258,-1.529 -1.583,-2.694 -3.186,-2.696 m 0,20.908 c 1.644,-0.003 2.996,-1.227 3.205,-2.815 h -6.41 c 0.21,1.588 1.562,2.812 3.205,2.815 m 0,1.799 C 25.58,47.54 23.421,45.51 23.208,42.927 H 23.186 V 42.511 42.508 42.503 28.075 28.068 28.062 27.53 h 0.029 c 0.269,-2.526 2.406,-4.493 5.003,-4.494 2.597,10e-4 4.733,1.968 5.004,4.494 h 0.029 v 15.397 h -0.022 c -0.213,2.583 -2.373,4.613 -5.011,4.614"
           style="fill:#ff3c4b;fill-opacity:1;fill-rule:nonzero;stroke:none"
           id="path24" /><path
           d="m 29.792,36.666 h -3.147 v -1.797 h 3.147 z"
           style="fill:#3d3d49;fill-opacity:1;fill-rule:nonzero;stroke:none"
           id="path26" /></g></g></g></svg>
