<?xml version="1.0" encoding="UTF-8" standalone="no"?>
<svg
   xmlns:dc="http://purl.org/dc/elements/1.1/"
   xmlns:cc="http://creativecommons.org/ns#"
   xmlns:rdf="http://www.w3.org/1999/02/22-rdf-syntax-ns#"
   xmlns:svg="http://www.w3.org/2000/svg"
   xmlns="http://www.w3.org/2000/svg"
   xmlns:sodipodi="http://sodipodi.sourceforge.net/DTD/sodipodi-0.dtd"
   xmlns:inkscape="http://www.inkscape.org/namespaces/inkscape"
   version="1.1"
   id="svg2"
   xml:space="preserve"
   width="835.83069"
   height="500.45999"
   viewBox="0 0 835.83069 500.45999"
   sodipodi:docname="table.ai"><metadata
     id="metadata8"><rdf:RDF><cc:Work
         rdf:about=""><dc:format>image/svg+xml</dc:format><dc:type
           rdf:resource="http://purl.org/dc/dcmitype/StillImage" /></cc:Work></rdf:RDF></metadata><defs
     id="defs6"><clipPath
       clipPathUnits="userSpaceOnUse"
       id="clipPath18"><path
         d="M 0,375.345 H 626.873 V 0 H 0 Z"
         id="path16" /></clipPath><clipPath
       clipPathUnits="userSpaceOnUse"
       id="clipPath26"><path
         d="m 522.803,238.529 h 104.07 v -64.714 h -104.07 z"
         id="path24" /></clipPath><clipPath
       clipPathUnits="userSpaceOnUse"
       id="clipPath62"><path
         d="M 0,217.023 H 103.066 V 152.31 H 0 Z"
         id="path60" /></clipPath><clipPath
       clipPathUnits="userSpaceOnUse"
       id="clipPath98"><path
         d="M 61.4761,375.345 H 201.877 V 310.631 H 61.4761 Z"
         id="path96" /></clipPath><clipPath
       clipPathUnits="userSpaceOnUse"
       id="clipPath342"><path
         d="m 500.209,108.632 h 60.992 v -5.089 h -60.992 z"
         id="path340" /></clipPath><clipPath
       clipPathUnits="userSpaceOnUse"
       id="clipPath362"><path
         d="m 498.273,101.921 h 64.936 v -2.1036 h -64.936 z"
         id="path360" /></clipPath><clipPath
       clipPathUnits="userSpaceOnUse"
       id="clipPath406"><path
         d="M 85.5215,82.2852 H 106.658 V 71.5674 H 85.5215 Z"
         id="path404" /></clipPath><clipPath
       clipPathUnits="userSpaceOnUse"
       id="clipPath440"><path
         d="M 503.861,82.2852 H 525 V 71.5674 h -21.139 z"
         id="path438" /></clipPath><clipPath
       clipPathUnits="userSpaceOnUse"
       id="clipPath546"><path
         d="M 349.504,337.173 H 452.57 V 272.457 H 349.504 Z"
         id="path544" /></clipPath><clipPath
       clipPathUnits="userSpaceOnUse"
       id="clipPath582"><path
         d="M 210.484,64.7139 H 350.885 V 0 H 210.484 Z"
         id="path580" /></clipPath><clipPath
       clipPathUnits="userSpaceOnUse"
       id="clipPath630"><path
         d="M 243.376,236.023 H 398.051 V 116.647 H 243.376 Z"
         id="path628" /></clipPath></defs><sodipodi:namedview
     pagecolor="#ffffff"
     bordercolor="#666666"
     borderopacity="1"
     objecttolerance="10"
     gridtolerance="10"
     guidetolerance="10"
     inkscape:pageopacity="0"
     inkscape:pageshadow="2"
     inkscape:window-width="640"
     inkscape:window-height="480"
     id="namedview4" /><g
     id="g10"
     inkscape:groupmode="layer"
     inkscape:label="table"
     transform="matrix(1.3333333,0,0,-1.3333333,0,500.46)"><g
       id="g12"><g
         id="g14"
         clip-path="url(#clipPath18)"><g
           id="g20"><g
             id="g22" /><g
             id="g54"><g
               clip-path="url(#clipPath26)"
               opacity="0.300003"
               id="g52"><g
                 transform="translate(625.4434,183.8271)"
                 id="g30"><path
                   d="m 0,0 c 0,-4.72 -3.861,-8.582 -8.58,-8.582 h -51.489 c -4.72,0 -8.581,3.862 -8.581,8.582 v 13.76 c 0,4.72 3.861,8.582 8.581,8.582 H -8.58 C -3.861,22.342 0,18.48 0,13.76 Z"
                   style="fill:#d6ecf3;fill-opacity:1;fill-rule:nonzero;stroke:none"
                   id="path28" /></g><g
                 transform="translate(625.4434,182.3711)"
                 id="g34"><path
                   d="m 0,0 c 0,-3.919 -3.594,-7.126 -7.984,-7.126 h -47.912 c -4.393,0 -7.987,3.207 -7.987,7.126 v 11.427 c 0,3.919 3.594,7.126 7.987,7.126 H -7.984 C -3.594,18.553 0,15.346 0,11.427 Z"
                   style="fill:#b6d0d6;fill-opacity:1;fill-rule:nonzero;stroke:none"
                   id="path32" /></g><g
                 transform="translate(565.374,204.7388)"
                 id="g38"><path
                   d="M 0,0 C -3.923,-0.007 -7.146,-3.227 -7.151,-7.152 V -20.91 c 0.005,-3.925 3.228,-7.146 7.151,-7.154 l 51.489,0.002 c 3.922,0.006 7.143,3.227 7.151,7.152 V -7.152 C 58.632,-3.227 55.411,-0.007 51.489,0 Z m -10.011,-20.91 -0.002,13.758 C -10.006,-1.634 -5.517,2.855 0,2.86 L 51.489,2.861 C 57.004,2.855 61.495,-1.634 61.499,-7.152 V -20.91 c -0.004,-5.517 -4.495,-10.007 -10.01,-10.011 L 0,-30.923 c -5.517,0.006 -10.006,4.496 -10.011,10.013"
                   style="fill:#111f53;fill-opacity:1;fill-rule:nonzero;stroke:none"
                   id="path36" /></g><g
                 transform="translate(592.8848,214.7563)"
                 id="g42"><path
                   d="M 0,0 C 0,-4.72 -3.863,-8.582 -8.582,-8.582 H -60.07 c -4.719,0 -8.58,3.862 -8.58,8.582 v 13.76 c 0,4.719 3.861,8.58 8.58,8.58 H -8.582 C -3.863,22.34 0,18.479 0,13.76 Z"
                   style="fill:#d6ecf3;fill-opacity:1;fill-rule:nonzero;stroke:none"
                   id="path40" /></g><g
                 transform="translate(592.8848,213.2998)"
                 id="g46"><path
                   d="m 0,0 c 0,-3.919 -3.594,-7.125 -7.986,-7.125 h -47.912 c -4.393,0 -7.985,3.206 -7.985,7.125 v 11.426 c 0,3.92 3.592,7.127 7.985,7.127 H -7.986 C -3.594,18.553 0,15.346 0,11.426 Z"
                   style="fill:#b6d0d6;fill-opacity:1;fill-rule:nonzero;stroke:none"
                   id="path44" /></g><g
                 transform="translate(532.8145,235.6675)"
                 id="g50"><path
                   d="M 0,0 C -3.923,-0.007 -7.145,-3.229 -7.152,-7.151 V -20.91 c 0.007,-3.925 3.229,-7.146 7.152,-7.154 l 51.488,0.002 c 3.922,0.006 7.143,3.227 7.152,7.152 V -7.151 C 58.631,-3.229 55.41,-0.007 51.488,0 Z M -10.012,-20.91 V -7.151 C -10.006,-1.635 -5.516,2.856 0,2.86 L 51.488,2.861 C 57.004,2.856 61.494,-1.635 61.5,-7.151 V -20.91 C 61.494,-26.427 57.004,-30.917 51.488,-30.923 H 0 c -5.516,0.006 -10.006,4.496 -10.012,10.013"
                   style="fill:#111f53;fill-opacity:1;fill-rule:nonzero;stroke:none"
                   id="path48" /></g></g></g></g><g
           id="g56"><g
             id="g58" /><g
             id="g90"><g
               clip-path="url(#clipPath62)"
               opacity="0.300003"
               id="g88"><g
                 transform="translate(70.082,162.3213)"
                 id="g66"><path
                   d="m 0,0 c 0,-4.719 -3.862,-8.582 -8.58,-8.582 h -51.489 c -4.721,0 -8.582,3.863 -8.582,8.582 v 13.761 c 0,4.719 3.861,8.581 8.582,8.581 H -8.58 C -3.862,22.342 0,18.48 0,13.761 Z"
                   style="fill:#d6ecf3;fill-opacity:1;fill-rule:nonzero;stroke:none"
                   id="path64" /></g><g
                 transform="translate(70.082,160.8662)"
                 id="g70"><path
                   d="m 0,0 c 0,-3.918 -3.592,-7.127 -7.985,-7.127 h -47.912 c -4.394,0 -7.986,3.209 -7.986,7.127 v 11.428 c 0,3.918 3.592,7.125 7.986,7.125 H -7.985 C -3.592,18.553 0,15.346 0,11.428 Z"
                   style="fill:#b6d0d6;fill-opacity:1;fill-rule:nonzero;stroke:none"
                   id="path68" /></g><g
                 transform="translate(10.0127,183.2334)"
                 id="g74"><path
                   d="M 0,0 C -3.923,-0.006 -7.145,-3.228 -7.152,-7.151 V -20.91 c 0.007,-3.924 3.229,-7.147 7.152,-7.153 l 51.489,0.002 c 3.921,0.004 7.142,3.227 7.15,7.151 V -7.151 C 58.631,-3.228 55.41,-0.006 51.489,0 Z m -10.011,-20.91 -0.002,13.759 C -10.007,-1.635 -5.517,2.855 0,2.859 L 51.489,2.86 C 57.003,2.855 61.495,-1.635 61.5,-7.151 V -20.91 C 61.495,-26.428 57.003,-30.918 51.489,-30.921 L 0,-30.924 c -5.517,0.006 -10.007,4.496 -10.011,10.014"
                   style="fill:#111f53;fill-opacity:1;fill-rule:nonzero;stroke:none"
                   id="path72" /></g><g
                 transform="translate(101.6362,193.2505)"
                 id="g78"><path
                   d="m 0,0 c 0,-4.719 -3.862,-8.582 -8.581,-8.582 h -51.487 c -4.721,0 -8.582,3.863 -8.582,8.582 v 13.76 c 0,4.719 3.861,8.581 8.582,8.581 H -8.581 C -3.862,22.341 0,18.479 0,13.76 Z"
                   style="fill:#d6ecf3;fill-opacity:1;fill-rule:nonzero;stroke:none"
                   id="path76" /></g><g
                 transform="translate(101.6362,191.7949)"
                 id="g82"><path
                   d="m 0,0 c 0,-3.92 -3.593,-7.126 -7.984,-7.126 h -47.913 c -4.393,0 -7.986,3.206 -7.986,7.126 v 11.426 c 0,3.92 3.593,7.127 7.986,7.127 H -7.984 C -3.593,18.553 0,15.346 0,11.426 Z"
                   style="fill:#b6d0d6;fill-opacity:1;fill-rule:nonzero;stroke:none"
                   id="path80" /></g><g
                 transform="translate(41.5679,214.1621)"
                 id="g86"><path
                   d="M 0,0 C -3.925,-0.006 -7.146,-3.227 -7.152,-7.151 V -20.91 c 0.006,-3.924 3.227,-7.146 7.152,-7.153 l 51.487,10e-4 c 3.922,0.006 7.143,3.228 7.151,7.152 V -7.151 C 58.63,-3.227 55.409,-0.006 51.487,0 Z m -10.012,-20.91 -0.002,13.759 C -10.008,-1.635 -5.518,2.855 0,2.86 L 51.487,2.861 C 57.003,2.855 61.493,-1.635 61.498,-7.151 V -20.91 C 61.493,-26.428 57.003,-30.917 51.487,-30.923 H 0 c -5.518,0.006 -10.008,4.495 -10.012,10.013"
                   style="fill:#111f53;fill-opacity:1;fill-rule:nonzero;stroke:none"
                   id="path84" /></g></g></g></g><g
           id="g92"><g
             id="g94" /><g
             id="g138"><g
               clip-path="url(#clipPath98)"
               opacity="0.300003"
               id="g136"><g
                 transform="translate(162.2192,320.6421)"
                 id="g102"><path
                   d="m 0,0 c 0,-4.719 -3.861,-8.582 -8.582,-8.582 h -51.487 c -4.719,0 -8.58,3.863 -8.58,8.582 v 13.76 c 0,4.721 3.861,8.582 8.58,8.582 H -8.582 C -3.861,22.342 0,18.481 0,13.76 Z"
                   style="fill:#d6ecf3;fill-opacity:1;fill-rule:nonzero;stroke:none"
                   id="path100" /></g><g
                 transform="translate(162.2192,319.1875)"
                 id="g106"><path
                   d="m 0,0 c 0,-3.919 -3.593,-7.127 -7.984,-7.127 h -47.913 c -4.392,0 -7.986,3.208 -7.986,7.127 v 11.425 c 0,3.921 3.594,7.128 7.986,7.128 H -7.984 C -3.593,18.553 0,15.346 0,11.425 Z"
                   style="fill:#b6d0d6;fill-opacity:1;fill-rule:nonzero;stroke:none"
                   id="path104" /></g><g
                 transform="translate(102.1499,341.5537)"
                 id="g110"><path
                   d="M 0,0 C -3.924,-0.008 -7.146,-3.228 -7.151,-7.151 V -20.91 c 0.005,-3.924 3.227,-7.146 7.151,-7.153 l 51.488,0.002 c 3.923,0.005 7.143,3.227 7.151,7.151 v 13.759 c -0.008,3.923 -3.228,7.143 -7.151,7.152 z m -10.01,-20.91 -0.003,13.759 C -10.006,-1.635 -5.516,2.856 0,2.859 L 51.488,2.862 C 57.003,2.856 61.495,-1.635 61.5,-7.151 V -20.91 C 61.495,-26.426 57.003,-30.916 51.488,-30.92 L 0,-30.923 c -5.516,0.007 -10.006,4.497 -10.01,10.013"
                   style="fill:#111f53;fill-opacity:1;fill-rule:nonzero;stroke:none"
                   id="path108" /></g><g
                 transform="translate(131.5591,351.5713)"
                 id="g114"><path
                   d="m 0,0 c 0,-4.72 -3.862,-8.582 -8.582,-8.582 h -51.487 c -4.72,0 -8.58,3.862 -8.58,8.582 v 13.76 c 0,4.719 3.86,8.581 8.58,8.581 H -8.582 C -3.862,22.341 0,18.479 0,13.76 Z"
                   style="fill:#d6ecf3;fill-opacity:1;fill-rule:nonzero;stroke:none"
                   id="path112" /></g><g
                 transform="translate(131.5591,350.1162)"
                 id="g118"><path
                   d="m 0,0 c 0,-3.92 -3.593,-7.126 -7.986,-7.126 h -47.912 c -4.392,0 -7.985,3.206 -7.985,7.126 v 11.426 c 0,3.92 3.593,7.127 7.985,7.127 H -7.986 C -3.593,18.553 0,15.346 0,11.426 Z"
                   style="fill:#b6d0d6;fill-opacity:1;fill-rule:nonzero;stroke:none"
                   id="path116" /></g><g
                 transform="translate(71.4897,372.4829)"
                 id="g122"><path
                   d="m 0,0 c -3.924,-0.007 -7.145,-3.227 -7.151,-7.152 v -13.759 c 0.006,-3.923 3.227,-7.146 7.151,-7.152 l 51.488,0.002 c 3.922,0.004 7.143,3.227 7.151,7.15 V -7.152 C 58.631,-3.227 55.41,-0.007 51.488,0 Z m -10.011,-20.911 -0.003,13.759 C -10.007,-1.635 -5.516,2.856 0,2.861 L 51.488,2.862 C 57.003,2.856 61.494,-1.635 61.499,-7.152 V -20.911 C 61.494,-26.427 57.003,-30.916 51.488,-30.922 L 0,-30.923 c -5.516,0.007 -10.007,4.496 -10.011,10.012"
                   style="fill:#111f53;fill-opacity:1;fill-rule:nonzero;stroke:none"
                   id="path120" /></g><g
                 transform="translate(200.4482,351.5713)"
                 id="g126"><path
                   d="M 0,0 C 0,-4.72 -3.861,-8.582 -8.582,-8.582 H -60.07 c -4.72,0 -8.581,3.862 -8.581,8.582 v 13.76 c 0,4.719 3.861,8.581 8.581,8.581 H -8.582 C -3.861,22.341 0,18.479 0,13.76 Z"
                   style="fill:#d6ecf3;fill-opacity:1;fill-rule:nonzero;stroke:none"
                   id="path124" /></g><g
                 transform="translate(200.4482,350.1162)"
                 id="g130"><path
                   d="m 0,0 c 0,-3.92 -3.594,-7.126 -7.986,-7.126 h -47.913 c -4.391,0 -7.984,3.206 -7.984,7.126 v 11.426 c 0,3.92 3.593,7.127 7.984,7.127 H -7.986 C -3.594,18.553 0,15.346 0,11.426 Z"
                   style="fill:#b6d0d6;fill-opacity:1;fill-rule:nonzero;stroke:none"
                   id="path128" /></g><g
                 transform="translate(140.3779,372.4829)"
                 id="g134"><path
                   d="m 0,0 c -3.923,-0.007 -7.144,-3.227 -7.15,-7.152 v -13.759 c 0.006,-3.923 3.227,-7.146 7.15,-7.152 l 51.489,0.002 c 3.922,0.004 7.143,3.227 7.151,7.15 V -7.152 C 58.632,-3.227 55.411,-0.007 51.489,0 Z M -10.011,-20.911 V -7.152 C -10.007,-1.635 -5.517,2.856 0,2.861 L 51.489,2.862 C 57.004,2.856 61.495,-1.635 61.5,-7.152 V -20.911 C 61.495,-26.427 57.004,-30.916 51.489,-30.922 L 0,-30.923 c -5.517,0.007 -10.007,4.496 -10.011,10.012"
                   style="fill:#111f53;fill-opacity:1;fill-rule:nonzero;stroke:none"
                   id="path132" /></g></g></g></g><g
           id="g140"
           transform="translate(187,352.4478)"><path
             d="m 0,0 c 0,-7.287 -5.907,-13.194 -13.195,-13.194 -7.286,0 -13.193,5.907 -13.193,13.194 0,7.287 5.907,13.194 13.193,13.194 C -5.907,13.194 0,7.287 0,0"
             style="fill:#fce467;fill-opacity:1;fill-rule:nonzero;stroke:none"
             id="path142" /></g><g
           id="g144"
           transform="translate(162.5664,352.4478)"><path
             d="M 0,0 C 0.009,-6.207 5.031,-11.228 11.24,-11.238 17.447,-11.228 22.468,-6.207 22.479,0 22.468,6.208 17.447,11.23 11.24,11.239 5.031,11.23 0.009,6.208 0,0 m -3.91,0 c 0,8.369 6.783,15.148 15.15,15.148 8.368,0 15.147,-6.779 15.147,-15.148 0,-8.366 -6.779,-15.147 -15.147,-15.148 C 2.873,-15.147 -3.91,-8.366 -3.91,0"
             style="fill:#111f53;fill-opacity:1;fill-rule:nonzero;stroke:none"
             id="path146" /></g><g
           id="g148"
           transform="translate(242.0522,269.377)"><path
             d="m 0,0 c 0,-16.28 -13.199,-29.479 -29.48,-29.479 -16.282,0 -29.483,13.199 -29.483,29.479 0,16.283 13.201,29.483 29.483,29.483 C -13.199,29.483 0,16.283 0,0"
             style="fill:#fce467;fill-opacity:1;fill-rule:nonzero;stroke:none"
             id="path150" /></g><g
           id="g152"
           transform="translate(185.0439,269.377)"><path
             d="M 0,0 C 0.027,-15.199 12.326,-27.498 27.526,-27.523 42.729,-27.498 55.026,-15.199 55.053,0 55.026,15.204 42.729,27.503 27.526,27.528 12.326,27.503 0.027,15.204 0,0 M -3.91,0 C -3.908,17.365 10.167,31.438 27.526,31.439 44.89,31.438 58.963,17.365 58.963,0 58.963,-17.361 44.89,-31.433 27.526,-31.435 10.167,-31.433 -3.908,-17.361 -3.91,0"
             style="fill:#111f53;fill-opacity:1;fill-rule:nonzero;stroke:none"
             id="path154" /></g><g
           id="g156"
           transform="translate(47.4238,256.0645)"><path
             d="m 0,0 8.766,4.315 71.587,-145.37 -8.769,-4.318 z"
             style="fill:#d5dae6;fill-opacity:1;fill-rule:nonzero;stroke:none"
             id="path158" /></g><g
           id="g160"
           transform="translate(68.9229,256.0645)"><path
             d="m 0,0 8.768,4.315 71.585,-145.37 -8.768,-4.318 z"
             style="fill:#d5dae6;fill-opacity:1;fill-rule:nonzero;stroke:none"
             id="path162" /></g><g
           id="g164"
           transform="translate(119.8979,113.3115)"><path
             d="m 0,0 5.261,2.59 -69.86,141.863 -5.259,-2.591 z m -74.228,141.888 1.754,0.864 0.863,-1.752 -0.863,1.752 -1.754,-0.864 -0.865,1.754 12.274,6.043 L 10.496,0.807 -1.781,-5.238 Z"
             style="fill:#111f53;fill-opacity:1;fill-rule:nonzero;stroke:none"
             id="path166" /></g><g
           id="g168"
           transform="translate(141.3975,113.3115)"><path
             d="m 0,0 5.259,2.59 -69.858,141.863 -5.261,-2.591 z m -74.229,141.888 1.754,0.864 0.863,-1.752 -0.863,1.752 -1.754,-0.864 -0.862,1.754 12.273,6.046 L 10.496,0.807 -1.78,-5.238 Z"
             style="fill:#111f53;fill-opacity:1;fill-rule:nonzero;stroke:none"
             id="path170" /></g><g
           id="g172"
           transform="translate(59.9238,238.606)"><path
             d="m 0,0 -5.032,8.376 138.893,83.465 5.034,-8.38 z"
             style="fill:#d5dae6;fill-opacity:1;fill-rule:nonzero;stroke:none"
             id="path174" /></g><g
           id="g176"
           transform="translate(58.1313,260.0308)"><path
             d="m 0,0 -5.033,8.376 138.895,83.463 5.032,-8.379 z"
             style="fill:#d5dae6;fill-opacity:1;fill-rule:nonzero;stroke:none"
             id="path178" /></g><g
           id="g180"
           transform="translate(196.1343,322.7349)"><path
             d="m 0,0 -3.02,5.027 -135.542,-81.45 3.019,-5.025 z m -135.204,-85.805 -1.005,1.676 1.672,1.006 -1.672,-1.006 1.005,-1.676 -1.675,-1.006 -7.045,11.727 142.243,85.476 7.048,-11.73 z"
             style="fill:#111f53;fill-opacity:1;fill-rule:nonzero;stroke:none"
             id="path182" /></g><g
           id="g184"
           transform="translate(194.3408,344.1592)"><path
             d="m 0,0 -3.019,5.027 -135.544,-81.449 3.021,-5.028 z m -135.204,-85.806 -1.005,1.678 1.673,1.004 -1.673,-1.004 1.005,-1.678 -1.676,-1.006 -7.048,11.729 142.249,85.475 7.045,-11.73 z"
             style="fill:#111f53;fill-opacity:1;fill-rule:nonzero;stroke:none"
             id="path186" /></g><g
           id="g188"
           transform="translate(86.2563,255.5332)"><path
             d="m 0,0 c 0,-11.607 -9.406,-21.011 -21.012,-21.011 -11.606,0 -21.011,9.404 -21.011,21.011 0,11.607 9.405,21.011 21.011,21.011 C -9.406,21.011 0,11.607 0,0"
             style="fill:#d5dae6;fill-opacity:1;fill-rule:nonzero;stroke:none"
             id="path190" /></g><g
           id="g192"
           transform="translate(68.5439,255.5332)"><path
             d="m 0,0 c 0,-1.822 -1.476,-3.299 -3.299,-3.299 -1.822,0 -3.297,1.477 -3.297,3.299 0,1.822 1.475,3.298 3.297,3.298 C -1.476,3.298 0,1.822 0,0"
             style="fill:#111f53;fill-opacity:1;fill-rule:nonzero;stroke:none"
             id="path194" /></g><g
           id="g196"
           transform="translate(57.6699,255.5332)"><path
             d="M 0,0 C 0.008,-4.183 3.39,-7.564 7.575,-7.572 11.758,-7.564 15.14,-4.183 15.148,0 15.14,4.185 11.758,7.568 7.575,7.575 3.39,7.568 0.008,4.185 0,0 M -3.909,0 C -3.906,6.345 1.231,11.481 7.575,11.484 13.918,11.481 19.057,6.345 19.057,0 19.057,-6.341 13.918,-11.48 7.575,-11.485 1.231,-11.48 -3.906,-6.341 -3.909,0"
             style="fill:#111f53;fill-opacity:1;fill-rule:nonzero;stroke:none"
             id="path198" /></g><g
           id="g200"
           transform="translate(46.186,255.5332)"><path
             d="M 0,0 C 0.021,-10.525 8.532,-19.037 19.059,-19.055 29.584,-19.037 38.097,-10.525 38.115,0 38.097,10.529 29.584,19.039 19.059,19.057 8.532,19.039 0.021,10.529 0,0 M -3.909,0 C -3.907,12.688 6.373,22.965 19.059,22.966 31.746,22.965 42.023,12.688 42.024,0 42.023,-12.685 31.746,-22.965 19.059,-22.965 6.373,-22.965 -3.907,-12.685 -3.909,0"
             style="fill:#111f53;fill-opacity:1;fill-rule:nonzero;stroke:none"
             id="path202" /></g><g
           id="g204"
           transform="translate(261.0122,296.9941)"><path
             d="m 0,0 c -2.446,5.311 -7.199,8.826 -12.519,9.91 -17.098,4.237 -32.186,15.904 -40.127,33.149 -1.189,2.578 -2.164,5.202 -2.961,7.844 l -0.111,-0.03 c -0.203,0.702 -0.444,1.401 -0.76,2.085 -3.239,7.035 -11.246,10.358 -18.417,7.902 l -0.035,0.071 -22.819,-10.507 c -7.505,-3.456 -10.785,-12.34 -7.332,-19.844 0.319,-0.688 0.697,-1.33 1.1,-1.946 L -104,28.621 c 1.493,-2.323 2.851,-4.769 4.038,-7.349 7.824,-16.994 7.022,-35.741 -0.559,-51.35 -3.015,-4.863 -3.61,-11.097 -1.038,-16.686 4.075,-8.85 14.555,-12.721 23.406,-8.645 0.146,0.068 0.287,0.141 0.428,0.211 l 0.007,-0.01 70.027,32.242 -0.012,0.033 C 0.471,-18.568 3.927,-8.53 0,0"
             style="fill:#d5dae6;fill-opacity:1;fill-rule:nonzero;stroke:none"
             id="path206" /></g><g
           id="g208"
           transform="translate(253.3091,274.0615)"><path
             d="m 0,0 c 8.174,4.365 11.63,14.403 7.703,22.933 -2.446,5.31 -7.199,8.826 -12.519,9.909 -17.098,4.238 -32.186,15.905 -40.126,33.149 -1.19,2.578 -2.164,5.203 -2.962,7.845 l -0.111,-0.03 c -0.203,0.702 -0.443,1.401 -0.76,2.084 -2.788,6.055 -9.106,9.348 -15.383,8.589 l -10.04,-4.625 c -8.883,-4.091 -12.769,-14.607 -8.678,-23.488 0.377,-0.816 0.823,-1.575 1.301,-2.304 l -0.024,-0.017 c 1.769,-2.75 3.375,-5.646 4.782,-8.7 9.262,-20.117 8.311,-42.31 -0.663,-60.786 -3.361,-5.426 -4.179,-12.286 -1.718,-18.594 2.908,-0.228 5.911,0.252 8.748,1.558 0.146,0.068 0.287,0.142 0.429,0.211 l 0.006,-0.009 70.027,32.242 z"
             style="fill:#f8fcfd;fill-opacity:1;fill-rule:nonzero;stroke:none"
             id="path210" /></g><g
           id="g212"
           transform="translate(157.6772,249.415)"><path
             d="m 0,0 c -1.22,2.651 -1.799,5.44 -1.799,8.181 0,3.639 1.017,7.193 2.9,10.266 3.798,7.864 5.823,16.544 5.823,25.372 0,8.112 -1.709,16.352 -5.328,24.214 -1.148,2.493 -2.458,4.859 -3.906,7.11 l -1.041,1.62 0.084,0.057 c -0.087,0.169 -0.172,0.344 -0.255,0.522 -1.053,2.289 -1.555,4.699 -1.554,7.067 -0.003,6.395 3.653,12.517 9.843,15.371 l 24.559,11.308 0.154,-0.317 c 1.257,0.29 2.525,0.429 3.779,0.429 6.398,0.002 12.52,-3.653 15.374,-9.842 0.084,-0.183 0.162,-0.364 0.236,-0.546 l 0.183,0.051 0.549,-1.815 c 0.772,-2.564 1.712,-5.1 2.863,-7.592 7.679,-16.673 22.248,-27.946 38.78,-32.06 5.888,-1.209 11.156,-5.116 13.865,-11 l -1.776,-0.815 -1.774,-0.818 c -2.178,4.725 -6.396,7.844 -11.135,8.813 l -0.045,0.01 -0.035,0.009 C 72.699,59.964 57.11,72.019 48.914,89.82 c -0.959,2.078 -1.781,4.182 -2.486,6.295 l -0.154,-0.04 -0.534,1.833 c -0.186,0.642 -0.396,1.246 -0.658,1.812 -2.193,4.767 -6.9,7.569 -11.823,7.573 -1.4,-0.002 -2.808,-0.225 -4.182,-0.699 L 28.424,106.368 6.403,96.229 c -4.766,-2.193 -7.566,-6.901 -7.569,-11.82 0,-1.819 0.382,-3.661 1.196,-5.43 0.264,-0.574 0.592,-1.13 0.957,-1.692 l 1.066,-1.62 -0.06,-0.041 c 1.144,-1.905 2.201,-3.889 3.155,-5.957 3.861,-8.38 5.687,-17.186 5.687,-25.85 0,-9.463 -2.182,-18.757 -6.264,-27.171 L 4.529,16.561 4.476,16.473 C 2.94,13.996 2.11,11.117 2.11,8.181 c 0,-2.192 0.462,-4.415 1.443,-6.547 2.643,-5.745 8.321,-9.128 14.259,-9.128 2.194,0 4.42,0.462 6.555,1.442 0.088,0.039 0.211,0.102 0.374,0.185 l 1.574,0.782 0.036,-0.055 67.878,31.255 0.481,0.257 c 5.23,2.789 8.288,8.204 8.288,13.845 0,2.194 -0.46,4.417 -1.439,6.546 l 1.774,0.818 1.776,0.815 c 1.221,-2.645 1.799,-5.437 1.799,-8.179 0,-6.471 -3.22,-12.696 -8.813,-16.375 L 98.184,23.636 26.131,-9.542 c -0.043,-0.02 -0.088,-0.042 -0.135,-0.063 -0.062,-0.029 -0.126,-0.058 -0.19,-0.086 l -0.923,-0.426 -0.021,0.032 c -2.303,-0.891 -4.695,-1.319 -7.05,-1.319 C 10.399,-11.404 3.305,-7.174 0,0"
             style="fill:#111f53;fill-opacity:1;fill-rule:nonzero;stroke:none"
             id="path214" /></g><g
           id="g216"
           transform="translate(185.9731,100.5498)"><path
             d="m 0,0 c 0,11.736 -9.675,21.337 -21.5,21.337 h -78.671 c -11.825,0 -21.5,-9.601 -21.5,-21.337 0,-0.055 0.003,-0.107 0.003,-0.162 H -0.004 C -0.004,-0.107 0,-0.055 0,0"
             style="fill:#d5dae6;fill-opacity:1;fill-rule:nonzero;stroke:none"
             id="path218" /></g><g
           id="g220"
           transform="translate(159.3423,121.9639)"><path
             d="M 0,0 C 0,6.598 -5.439,11.996 -12.088,11.996 H -56.321 C -62.969,11.996 -68.41,6.598 -68.41,0 c 0,-0.031 0.002,-0.061 0.002,-0.092 H -0.002 C -0.002,-0.061 0,-0.031 0,0"
             style="fill:#d5dae6;fill-opacity:1;fill-rule:nonzero;stroke:none"
             id="path222" /></g><g
           id="g224"
           transform="translate(65.8389,106.335)"><path
             d="m 0,0 h 77.145 c 7.069,0 12.857,5.276 12.857,11.727 v 3.825 H 19.963 C 10.169,15.552 1.855,8.964 -0.714,0.033 -0.476,0.02 -0.241,0 0,0"
             style="fill:#f8fcfd;fill-opacity:1;fill-rule:nonzero;stroke:none"
             id="path226" /></g><g
           id="g228"
           transform="translate(91.7964,125.2139)"><path
             d="m 0,0 h 43.375 c 3.976,0 7.229,2.969 7.229,6.596 v 2.15 H 11.225 C 5.719,8.746 1.044,5.042 -0.402,0.021 -0.268,0.013 -0.135,0 0,0"
             style="fill:#f8fcfd;fill-opacity:1;fill-rule:nonzero;stroke:none"
             id="path230" /></g><g
           id="g232"
           transform="translate(85.8022,121.8867)"><path
             d="M 0,0 C -7.45,0 -14.044,-3.812 -17.907,-9.567 H -2.281 C 3.43,-9.567 8.216,-5.425 9.236,0 Z"
             style="fill:#ffffff;fill-opacity:1;fill-rule:nonzero;stroke:none"
             id="path234" /></g><g
           id="g236"
           transform="translate(103.0215,133.96)"><path
             d="m 0,0 c -4.189,0 -7.896,-2.144 -10.068,-5.381 h 8.785 c 3.212,0 5.902,2.329 6.475,5.381 z"
             style="fill:#ffffff;fill-opacity:1;fill-rule:nonzero;stroke:none"
             id="path238" /></g><g
           id="g240"
           transform="translate(185.9731,100.5498)"><path
             d="m 0,0 c 0,11.736 -9.675,21.337 -21.5,21.337 h -78.671 c -11.825,0 -21.5,-9.601 -21.5,-21.337 0,-0.055 0.003,-0.107 0.003,-0.162 H -0.004 C -0.004,-0.107 0,-0.055 0,0 Z"
             style="fill:none;stroke:#111f53;stroke-width:4;stroke-linecap:butt;stroke-linejoin:miter;stroke-miterlimit:4;stroke-dasharray:none;stroke-opacity:1"
             id="path242" /></g><g
           id="g244"
           transform="translate(159.3423,121.9639)"><path
             d="M 0,0 C 0,6.598 -5.439,11.996 -12.088,11.996 H -56.321 C -62.969,11.996 -68.41,6.598 -68.41,0 c 0,-0.031 0.002,-0.061 0.002,-0.092 H -0.002 C -0.002,-0.061 0,-0.031 0,0 Z"
             style="fill:none;stroke:#111f53;stroke-width:4;stroke-linecap:butt;stroke-linejoin:miter;stroke-miterlimit:4;stroke-dasharray:none;stroke-opacity:1"
             id="path246" /></g><g
           id="g248"
           transform="translate(533.7383,174.165)"><path
             d="m 0,0 c -0.802,1.783 -2.36,2.979 -4.125,3.396 -2.088,0.562 -5.504,0.747 -6.977,1.719 -1.789,1.181 -0.611,5.481 -0.611,5.481 0,0 -0.008,0.015 -0.014,0.024 0.252,1.01 0.182,2.109 -0.279,3.134 -0.489,1.088 -1.332,1.904 -2.33,2.378 -0.005,0.01 -0.008,0.021 -0.012,0.032 -0.238,0.093 -0.459,0.165 -0.67,0.23 -0.055,0.014 -0.108,0.036 -0.164,0.049 -2.068,0.575 -2.95,-0.178 -6.351,-0.267 -2.887,-0.074 -4.123,3.117 -4.555,4.687 -0.041,0.391 -0.141,0.78 -0.31,1.157 -0.731,1.623 -2.461,2.476 -4.137,2.167 -0.049,0.009 -0.1,0.023 -0.138,0.027 -8.984,-2.024 -11.835,-0.027 -15.641,-0.614 -3.807,-0.585 -4.633,-0.956 -5.334,-2.927 -0.704,-1.971 3.353,-3.192 5.169,-5.319 1.441,-1.686 1.722,-5.13 1.776,-6.493 -0.041,-0.6 0.059,-1.218 0.324,-1.807 0.588,-1.312 1.832,-2.122 3.174,-2.223 1.695,-0.282 4.689,1.284 6.012,0.804 1.383,-0.503 2.418,-1.627 0.634,-4.578 -2.21,-3.178 -2.988,-5.646 -2.988,-5.646 l 0.014,-0.015 c -0.423,-1.145 -0.417,-2.45 0.125,-3.652 0.493,-1.101 1.353,-1.923 2.371,-2.393 0.988,-0.518 2.639,-0.373 4.359,-2.962 1.535,-2.315 -0.578,-5.707 -1.543,-7.041 -1.498,-1.722 -1.954,-4.22 -0.957,-6.44 1.366,-3.039 4.938,-4.396 7.979,-3.029 0.09,0.04 0.172,0.089 0.256,0.131 0.002,0 0.004,-0.001 0.007,-0.001 0.02,0.012 0.042,0.024 0.063,0.037 0.209,0.109 0.408,0.225 0.598,0.353 7.431,4.303 10.233,1.066 10.233,1.066 5.478,2.461 5.575,2.902 6.476,6.35 1.545,5.059 5.354,12.97 6.921,16.138 C 0.6,-4.352 0.924,-2.055 0,0"
             style="fill:#9cdb6f;fill-opacity:1;fill-rule:nonzero;stroke:none"
             id="path250" /></g><g
           id="g252"
           transform="translate(529.6133,177.5615)"><path
             d="m 0,0 c -2.088,0.562 -5.504,0.746 -6.977,1.719 -1.789,1.18 -0.611,5.48 -0.611,5.48 0,0 -0.008,0.016 -0.014,0.025 0.252,1.009 0.182,2.109 -0.279,3.134 -0.489,1.088 -1.332,1.904 -2.33,2.378 -0.005,0.009 -0.008,0.02 -0.012,0.032 -0.238,0.092 -0.459,0.165 -0.67,0.229 -0.055,0.015 -0.108,0.036 -0.164,0.05 -2.068,0.574 -2.95,-0.179 -6.351,-0.268 -2.887,-0.074 -4.123,3.117 -4.555,4.687 -0.041,0.392 -0.141,0.78 -0.31,1.157 -0.323,0.717 -0.84,1.282 -1.459,1.664 -2.527,-3.539 -8.932,-5.875 -14.775,-3.932 -7.782,2.591 -7.264,0.264 -5.972,0.137 1.291,-0.124 5.784,-3.84 4.689,-7.684 -1.094,-3.847 7.405,1.388 8.999,-0.191 1.592,-1.58 -0.004,-3.53 3.203,-1.826 3.203,1.706 5.141,1.518 1.567,-3.883 -3.571,-5.4 3.361,-2.371 6.49,-1.673 3.127,0.701 0.612,-4.31 -7.648,-6.348 -8.26,-2.037 3.596,-1.914 11.008,-3.877 7.41,-1.96 -1.311,-2.971 -5.319,-4.067 -4.008,-1.097 -2.013,-3.375 0.541,-2.58 2.554,0.795 8.871,-0.691 6.857,-4.064 -2.012,-3.376 -9.816,-3.09 -10.721,-5.792 -0.903,-2.7 1.881,-2.417 10.778,-1.597 6.289,0.583 6.55,-2.207 6.164,-3.891 3.474,1.7 3.659,2.448 4.43,5.4 1.545,5.059 5.354,12.97 6.921,16.138 1.245,1.695 1.569,3.992 0.645,6.047 C 3.323,-1.613 1.765,-0.417 0,0"
             style="fill:#77c46e;fill-opacity:1;fill-rule:nonzero;stroke:none"
             id="path254" /></g><g
           id="g256"
           transform="translate(529.3555,171.8408)"><path
             d="m 0,0 c 0.839,-1.865 -1.725,-2.134 -3.268,-4.115 -2.966,-3.803 -4.22,-3.961 -5.058,-2.096 -0.838,1.862 0.369,6.695 2.66,7.726 C -3.375,2.543 -0.84,1.867 0,0"
             style="fill:#9cdb6f;fill-opacity:1;fill-rule:nonzero;stroke:none"
             id="path258" /></g><g
           id="g260"
           transform="translate(518.8076,185.4697)"><path
             d="m 0,0 c -0.091,-1.652 -2.032,-0.896 -3.878,-1.747 -3.548,-1.634 -4.508,-1.281 -4.418,0.372 0.09,1.652 2.754,4.679 4.783,4.568 C -1.483,3.083 0.091,1.653 0,0"
             style="fill:#9cdb6f;fill-opacity:1;fill-rule:nonzero;stroke:none"
             id="path262" /></g><g
           id="g264"
           transform="translate(513.3545,176.0537)"><path
             d="m 0,0 c -1.959,2.943 -4.062,5.42 -6.085,7.461 -0.367,0.86 -0.865,2.578 -0.129,4.57 0.93,2.514 -2.688,0.846 -2.994,-1.677 -2.089,1.774 -3.938,3.043 -5.236,3.855 -0.116,0.568 -0.135,1.301 0.162,2.104 0.594,1.606 -1.735,0.525 -1.904,-1.094 -0.038,0.02 -0.079,0.043 -0.106,0.057 -0.025,0.016 -0.055,0.027 -0.082,0.041 -0.022,0.011 -0.037,0.021 -0.041,0.021 -0.249,0.113 -0.541,0.124 -0.811,0.004 -0.499,-0.225 -0.718,-0.809 -0.496,-1.306 0.136,-0.302 0.403,-0.501 0.705,-0.563 0.079,-0.04 0.163,-0.088 0.275,-0.149 2.456,-1.36 12.886,-7.786 18.93,-21.248 1.802,-4.008 3.218,-8.644 3.93,-13.972 0.002,-0.135 0.028,-0.271 0.086,-0.401 0.225,-0.498 0.809,-0.721 1.307,-0.498 0.494,0.223 0.715,0.799 0.502,1.292 -0.068,0.488 -0.147,0.965 -0.224,1.442 l 0.002,0.006 c 0,0 -0.028,2.567 2.231,4.31 1.968,1.518 -1.632,2.003 -3.165,0.22 C 6.09,-12.477 5.099,-9.681 3.95,-7.131 3.703,-6.584 3.45,-6.053 3.19,-5.527 3.047,-4.479 2.862,-1.363 5.192,1.436 7.845,4.621 1.222,3.852 0,0"
             style="fill:#37a95b;fill-opacity:1;fill-rule:nonzero;stroke:none"
             id="path266" /></g><g
           id="g268"
           transform="translate(528.0928,178.8809)"><path
             d="m 0,0 c 0.938,2.087 2.765,3.489 4.833,3.978 2.443,0.656 6.447,0.873 8.168,2.01 2.098,1.386 0.719,6.421 0.719,6.421 0,0 0.008,0.017 0.013,0.026 -0.293,1.186 -0.211,2.473 0.328,3.673 0.573,1.273 1.561,2.229 2.731,2.784 0.004,0.012 0.008,0.026 0.012,0.039 0.281,0.108 0.538,0.192 0.785,0.268 0.065,0.018 0.129,0.04 0.192,0.058 2.425,0.673 3.456,-0.21 7.441,-0.31 3.38,-0.091 4.828,3.646 5.334,5.487 0.048,0.459 0.166,0.914 0.363,1.354 0.855,1.901 2.883,2.901 4.844,2.537 0.056,0.012 0.115,0.027 0.162,0.032 10.523,-2.368 13.861,-0.031 18.318,-0.717 4.461,-0.686 5.427,-1.121 6.25,-3.429 0.822,-2.307 -3.929,-3.737 -6.055,-6.23 -1.687,-1.973 -2.017,-6.008 -2.08,-7.605 C 52.407,9.673 52.288,8.948 51.979,8.262 51.288,6.724 49.832,5.773 48.261,5.657 46.274,5.326 42.769,7.161 41.22,6.598 39.599,6.009 38.388,4.693 40.476,1.235 c 2.589,-3.721 3.502,-6.611 3.502,-6.611 l -0.016,-0.018 c 0.492,-1.339 0.485,-2.869 -0.149,-4.276 -0.578,-1.291 -1.584,-2.254 -2.775,-2.806 -1.158,-0.605 -3.094,-0.436 -5.107,-3.468 -1.797,-2.709 0.679,-6.684 1.806,-8.244 1.754,-2.018 2.291,-4.944 1.122,-7.542 -1.6,-3.562 -5.784,-5.152 -9.346,-3.548 -0.104,0.046 -0.2,0.101 -0.299,0.15 -0.002,-0.002 -0.006,-0.002 -0.008,-0.002 -0.024,0.015 -0.049,0.029 -0.074,0.045 -0.244,0.128 -0.477,0.265 -0.7,0.416 -8.704,5.037 -11.986,1.245 -11.986,1.245 -6.416,2.882 -6.531,3.4 -7.584,7.439 C 7.052,-20.06 2.591,-10.794 0.755,-7.083 -0.702,-5.099 -1.083,-2.407 0,0"
             style="fill:#9cdb6f;fill-opacity:1;fill-rule:nonzero;stroke:none"
             id="path270" /></g><g
           id="g272"
           transform="translate(532.9258,182.8584)"><path
             d="m 0,0 c 2.443,0.656 6.447,0.873 8.168,2.011 2.098,1.385 0.719,6.421 0.719,6.421 0,0 0.008,0.017 0.013,0.026 -0.293,1.186 -0.211,2.473 0.328,3.672 0.573,1.273 1.561,2.23 2.731,2.784 0.004,0.012 0.008,0.026 0.012,0.039 0.281,0.108 0.538,0.193 0.785,0.269 0.065,0.018 0.129,0.04 0.192,0.058 2.425,0.672 3.456,-0.21 7.441,-0.311 3.38,-0.09 4.828,3.647 5.334,5.488 0.048,0.458 0.166,0.913 0.363,1.354 0.377,0.838 0.982,1.501 1.71,1.947 2.958,-4.144 10.46,-6.88 17.303,-4.603 9.114,3.034 8.51,0.308 6.997,0.16 -1.514,-0.146 -6.776,-4.498 -5.493,-9 1.28,-4.504 -8.675,1.626 -10.54,-0.225 C 34.197,8.241 36.065,5.957 32.313,7.953 28.56,9.951 26.29,9.73 30.476,3.405 c 4.182,-6.325 -3.939,-2.778 -7.6,-1.96 -3.663,0.822 -0.72,-5.049 8.956,-7.434 9.676,-2.388 -4.211,-2.241 -12.894,-4.54 -8.68,-2.298 1.537,-3.481 6.23,-4.765 4.695,-1.283 2.357,-3.952 -0.635,-3.021 -2.99,0.93 -10.387,-0.81 -8.029,-4.762 2.355,-3.953 11.498,-3.617 12.557,-6.781 1.057,-3.163 -2.204,-2.832 -12.623,-1.871 -7.37,0.682 -7.672,-2.586 -7.221,-4.559 -4.069,1.991 -4.285,2.868 -5.188,6.325 -1.81,5.926 -6.271,15.192 -8.107,18.902 -1.457,1.985 -1.838,4.676 -0.755,7.083 C -3.895,-1.891 -2.068,-0.488 0,0"
             style="fill:#77c46e;fill-opacity:1;fill-rule:nonzero;stroke:none"
             id="path274" /></g><g
           id="g276"
           transform="translate(533.2266,176.1592)"><path
             d="M 0,0 C -0.981,-2.186 2.018,-2.502 3.826,-4.821 7.303,-9.277 8.771,-9.461 9.752,-7.277 10.733,-5.094 9.318,0.564 6.637,1.771 3.952,2.977 0.982,2.186 0,0"
             style="fill:#9cdb6f;fill-opacity:1;fill-rule:nonzero;stroke:none"
             id="path278" /></g><g
           id="g280"
           transform="translate(545.5801,192.1201)"><path
             d="M 0,0 C 0.105,-1.936 2.381,-1.05 4.543,-2.046 8.697,-3.96 9.82,-3.548 9.718,-1.612 9.611,0.326 6.492,3.868 4.115,3.738 1.736,3.611 -0.105,1.936 0,0"
             style="fill:#9cdb6f;fill-opacity:1;fill-rule:nonzero;stroke:none"
             id="path282" /></g><g
           id="g284"
           transform="translate(551.9648,181.0908)"><path
             d="m 0,0 c 2.297,3.448 4.758,6.348 7.129,8.739 0.43,1.007 1.014,3.021 0.152,5.353 -1.09,2.943 3.149,0.991 3.504,-1.967 2.449,2.082 4.615,3.567 6.137,4.517 0.133,0.667 0.156,1.526 -0.193,2.465 -0.694,1.882 2.033,0.613 2.23,-1.281 0.047,0.023 0.092,0.049 0.125,0.067 0.031,0.019 0.064,0.03 0.096,0.047 0.025,0.013 0.044,0.024 0.048,0.024 h 10e-4 c 0.291,0.135 0.633,0.145 0.947,0.006 0.586,-0.264 0.845,-0.947 0.582,-1.531 -0.16,-0.353 -0.473,-0.586 -0.826,-0.659 -0.089,-0.046 -0.19,-0.102 -0.321,-0.173 C 16.736,14.014 4.519,6.488 -2.56,-9.279 c -2.111,-4.696 -3.77,-10.125 -4.604,-16.367 -0.001,-0.157 -0.03,-0.316 -0.099,-0.468 -0.263,-0.585 -0.947,-0.844 -1.53,-0.582 -0.578,0.258 -0.838,0.932 -0.588,1.51 0.076,0.574 0.17,1.133 0.26,1.691 l -0.003,0.006 c 0,0 0.036,3.006 -2.612,5.05 -2.305,1.777 1.913,2.343 3.707,0.255 0.898,3.57 2.06,6.846 3.404,9.833 0.289,0.642 0.588,1.263 0.891,1.878 0.17,1.23 0.384,4.877 -2.345,8.156 C -9.186,5.412 -1.429,4.513 0,0"
             style="fill:#37a95b;fill-opacity:1;fill-rule:nonzero;stroke:none"
             id="path286" /></g><g
           id="g288"
           transform="translate(558.7773,171.5869)"><path
             d="m 0,0 c 0,2.592 -1.236,4.891 -3.146,6.355 -2.221,1.815 -6.258,3.899 -7.51,5.875 -1.522,2.404 2.243,6.971 2.243,6.971 0,0 -10e-4,0.021 -0.003,0.032 0.853,1.09 1.367,2.457 1.367,3.947 0,1.585 -0.578,3.029 -1.528,4.148 0.003,0.013 0.003,0.03 0.003,0.044 -0.239,0.244 -0.465,0.451 -0.686,0.644 -0.056,0.049 -0.115,0.1 -0.172,0.149 -2.189,1.822 -3.668,1.387 -7.836,3.133 -3.533,1.481 -3.292,6.015 -2.96,8.154 0.162,0.493 0.253,1.019 0.253,1.568 0,2.361 -1.632,4.336 -3.83,4.873 -0.052,0.038 -0.103,0.082 -0.15,0.105 -11.977,2.444 -14.34,6.41 -19.268,7.772 -4.925,1.361 -6.129,1.361 -8.05,-0.642 -1.924,-2.002 2.322,-5.687 3.365,-9.253 0.824,-2.824 -0.711,-7.145 -1.385,-8.825 -0.377,-0.704 -0.592,-1.508 -0.592,-2.363 0,-1.908 1.065,-3.568 2.631,-4.417 1.9,-1.265 6.377,-0.999 7.717,-2.3 1.402,-1.361 2.043,-3.284 -1.723,-5.888 -4.406,-2.644 -6.689,-5.207 -6.689,-5.207 l 0.008,-0.025 c -1.135,-1.157 -1.837,-2.739 -1.837,-4.487 0,-1.604 0.593,-3.066 1.566,-4.191 0.917,-1.163 2.993,-1.889 3.667,-5.957 0.6,-3.635 -3.807,-6.595 -5.697,-7.682 -2.75,-1.269 -4.664,-4.045 -4.664,-7.273 0,-4.426 3.588,-8.014 8.011,-8.014 0.129,0 0.254,0.015 0.381,0.022 0.003,-0.002 0.006,-0.005 0.007,-0.007 0.034,0.005 0.064,0.007 0.099,0.012 0.31,0.017 0.613,0.053 0.916,0.104 11.336,1.162 12.965,-4.282 12.965,-4.282 7.972,0 8.332,0.48 11.296,4.166 4.624,5.283 13.539,12.786 17.159,15.768 C -1.643,-5.596 0,-2.991 0,0"
             style="fill:#c3e22e;fill-opacity:1;fill-rule:nonzero;stroke:none"
             id="path290" /></g><g
           id="g292"
           transform="translate(555.6309,177.9424)"><path
             d="m 0,0 c -2.221,1.814 -6.258,3.898 -7.51,5.875 -1.521,2.403 2.243,6.971 2.243,6.971 0,0 -10e-4,0.02 -0.003,0.032 0.854,1.089 1.368,2.456 1.368,3.946 0,1.585 -0.578,3.03 -1.529,4.149 0.003,0.013 0.003,0.03 0.003,0.044 -0.238,0.243 -0.465,0.451 -0.685,0.643 -0.057,0.05 -0.116,0.101 -0.172,0.149 -2.19,1.822 -3.668,1.388 -7.836,3.133 -3.533,1.481 -3.292,6.015 -2.96,8.154 0.161,0.494 0.253,1.019 0.253,1.568 0,1.042 -0.318,2.007 -0.861,2.808 -4.985,-2.91 -14.008,-2.253 -20.024,3.28 -8.012,7.371 -8.652,4.272 -7.156,3.416 1.496,-0.853 4.913,-7.795 1.496,-11.856 -3.418,-4.058 9.721,-2.349 10.788,-5.126 1.067,-2.777 -1.923,-4.273 2.886,-3.953 4.804,0.321 7.047,-0.961 -0.215,-5.554 -7.264,-4.593 2.777,-4.7 6.943,-5.554 4.166,-0.856 -1.603,-5.555 -12.713,-3.525 -11.107,2.028 3.313,-4.272 11.217,-10.683 7.905,-6.409 -3.203,-2.884 -8.652,-2.029 -5.447,0.854 -4.273,-2.991 -0.748,-3.418 3.525,-0.427 10.361,-5.661 6.089,-8.653 -4.275,-2.99 -13.566,1.603 -16.129,-1.174 -2.564,-2.778 0.962,-3.954 12.177,-7.799 7.931,-2.719 6.728,-6.237 5.343,-8.067 5.131,0.168 5.765,0.973 8.302,4.128 4.624,5.283 13.539,12.786 17.159,15.769 2.43,1.375 4.072,3.979 4.072,6.971 C 3.146,-3.764 1.91,-1.465 0,0"
             style="fill:#a0d62a;fill-opacity:1;fill-rule:nonzero;stroke:none"
             id="path294" /></g><g
           id="g296"
           transform="translate(552.207,171.1592)"><path
             d="m 0,0 c 0,-2.713 -3.248,-1.646 -6.195,-3.205 -5.662,-2.99 -7.264,-2.5 -7.264,0.215 0,2.713 4.09,7.904 7.424,7.904 C -2.702,4.914 0,2.714 0,0"
             style="fill:#c3e22e;fill-opacity:1;fill-rule:nonzero;stroke:none"
             id="path298" /></g><g
           id="g300"
           transform="translate(546.8545,193.3955)"><path
             d="m 0,0 c -1.008,-1.952 -2.948,0.021 -5.647,-0.004 -5.181,-0.049 -6.152,0.899 -5.144,2.852 1.007,1.952 5.878,4.165 8.274,2.927 C -0.118,4.538 1.008,1.952 0,0"
             style="fill:#c3e22e;fill-opacity:1;fill-rule:nonzero;stroke:none"
             id="path302" /></g><g
           id="g304"
           transform="translate(535.1309,184.9639)"><path
             d="m 0,0 c -0.773,4.629 -1.969,8.769 -3.307,12.343 0.022,1.241 0.356,3.593 2.33,5.602 2.492,2.537 -2.794,2.488 -4.537,-0.401 -1.564,3.288 -3.111,5.828 -4.244,7.518 0.174,0.749 0.549,1.647 1.346,2.457 1.592,1.623 -1.817,1.581 -2.902,-0.289 -0.034,0.047 -0.071,0.094 -0.098,0.126 -0.023,0.034 -0.051,0.063 -0.076,0.095 -0.02,0.025 -0.035,0.044 -0.037,0.048 l -0.002,-0.002 c -0.241,0.273 -0.586,0.448 -0.978,0.448 -0.725,0 -1.312,-0.588 -1.312,-1.312 0,-0.439 0.217,-0.826 0.548,-1.064 0.07,-0.09 0.15,-0.194 0.249,-0.329 2.234,-2.983 11.365,-16.436 11.356,-36.022 0,-5.834 -0.811,-12.218 -2.848,-19.055 -0.07,-0.163 -0.113,-0.341 -0.113,-0.531 0,-0.726 0.588,-1.312 1.312,-1.312 0.717,0 1.299,0.576 1.309,1.29 0.188,0.628 0.35,1.247 0.516,1.867 l 0.004,0.004 c 0,0 1.363,3.124 5.048,4.006 3.207,0.767 -0.888,3.312 -3.711,1.988 0.728,4.106 1.047,8.033 1.047,11.743 0,0.795 -0.018,1.578 -0.046,2.354 0.394,1.35 1.867,5.221 6.211,7.34 C 12.008,1.324 3.572,3.999 0,0"
             style="fill:#81be23;fill-opacity:1;fill-rule:nonzero;stroke:none"
             id="path306" /></g><g
           id="g308"
           transform="translate(548.4023,147.2461)"><path
             d="m 0,0 c -0.658,0 -1.277,-0.165 -1.822,-0.45 -0.748,1.365 -2.199,2.292 -3.866,2.292 -0.798,0 -1.541,-0.214 -2.187,-0.583 -0.482,0.915 -1.433,1.543 -2.539,1.543 -1.031,0 -1.93,-0.544 -2.441,-1.358 -0.429,0.201 -0.901,0.318 -1.405,0.318 -0.66,0 -1.269,-0.197 -1.789,-0.525 -0.705,1.493 -2.22,2.528 -3.98,2.528 -1.708,0 -3.187,-0.973 -3.917,-2.394 -0.347,0.148 -0.73,0.231 -1.13,0.231 -1.323,0 -2.428,-0.898 -2.768,-2.115 -0.429,0.27 -0.933,0.432 -1.478,0.432 -0.535,0 -1.031,-0.158 -1.458,-0.42 -0.806,0.897 -1.97,1.461 -3.27,1.461 -2.432,0 -4.404,-1.973 -4.404,-4.405 0,-2.326 1.801,-4.226 4.086,-4.39 v -0.018 h 34.286 v 0.005 c 0.029,0 0.055,-0.005 0.082,-0.005 2.166,0 3.926,1.758 3.926,3.927 C 3.926,-1.758 2.166,0 0,0"
             style="fill:#7d6769;fill-opacity:1;fill-rule:nonzero;stroke:none"
             id="path310" /></g><g
           id="g312"
           transform="translate(568.0313,122.4502)"><path
             d="m 0,0 c 0,-10.398 -9.518,-18.907 -21.15,-18.907 h -32.368 c -11.631,0 -21.148,8.509 -21.148,18.907 0,10.398 9.517,18.906 21.148,18.906 H -21.15 C -9.518,18.906 0,10.398 0,0"
             style="fill:#d6cdbe;fill-opacity:1;fill-rule:nonzero;stroke:none"
             id="path314" /></g><g
           id="g316"
           transform="translate(545.8271,141.3564)"><path
             d="m 0,0 h -31.313 c -11.632,0 -21.149,-8.508 -21.149,-18.906 0,-4.68 1.932,-8.974 5.113,-12.285 h 31.311 c 11.633,0 21.15,8.508 21.15,18.908 C 5.112,-7.604 3.183,-3.311 0,0"
             style="fill:#ebe6de;fill-opacity:1;fill-rule:nonzero;stroke:none"
             id="path318" /></g><g
           id="g320"
           transform="translate(526.7988,119.8867)"><path
             d="m 0,0 c 0,-3.912 -3.581,-7.114 -7.957,-7.114 h -12.178 c -4.377,0 -7.957,3.202 -7.957,7.114 0,3.912 3.58,7.114 7.957,7.114 H -7.957 C -3.581,7.114 0,3.912 0,0"
             style="fill:#f4f2ee;fill-opacity:1;fill-rule:nonzero;stroke:none"
             id="path322" /></g><g
           id="g324"
           transform="translate(544.959,135.6963)"><path
             d="m 0,0 c 0,-1.83 -1.677,-3.326 -3.723,-3.326 h -5.695 c -2.047,0 -3.721,1.496 -3.721,3.326 0,1.83 1.674,3.327 3.721,3.327 h 5.695 C -1.677,3.327 0,1.83 0,0"
             style="fill:#f4f2ee;fill-opacity:1;fill-rule:nonzero;stroke:none"
             id="path326" /></g><g
           id="g328"
           transform="translate(521.873,137.1904)"><path
             d="m 0,0 c 0,-1.36 -1.245,-2.473 -2.766,-2.473 h -4.232 c -1.522,0 -2.766,1.113 -2.766,2.473 0,1.36 1.244,2.472 2.766,2.472 h 4.232 C -1.245,2.472 0,1.36 0,0"
             style="fill:#f4f2ee;fill-opacity:1;fill-rule:nonzero;stroke:none"
             id="path330" /></g><g
           id="g332"
           transform="translate(553.6836,108.1357)"><path
             d="m 0,0 c 0,-1.829 -1.676,-3.327 -3.722,-3.327 h -5.697 c -2.046,0 -3.721,1.498 -3.721,3.327 0,1.829 1.675,3.328 3.721,3.328 h 5.697 C -1.676,3.328 0,1.829 0,0"
             style="fill:#e1dbd0;fill-opacity:1;fill-rule:nonzero;stroke:none"
             id="path334" /></g><g
           id="g336"><g
             id="g338" /><g
             id="g350"><g
               clip-path="url(#clipPath342)"
               opacity="0.199997"
               id="g348"><g
                 transform="translate(560.5947,108.6318)"
                 id="g346"><path
                   d="m 0,0 h -59.706 c -0.232,0 -0.458,-0.027 -0.68,-0.074 3.774,-3.108 8.803,-5.015 14.305,-5.015 h 32.367 c 5.511,0 10.545,1.912 14.32,5.028 C 0.409,-0.023 0.206,0 0,0"
                   style="fill:#bdb2a3;fill-opacity:1;fill-rule:nonzero;stroke:none"
                   id="path344" /></g></g></g></g><g
           id="g352"
           transform="translate(564.4004,103.624)"><path
             d="m 0,0 c 0,-2.102 -1.703,-3.807 -3.806,-3.807 h -59.706 c -2.102,0 -3.805,1.705 -3.805,3.807 0,2.103 1.703,3.807 3.805,3.807 H -3.806 C -1.703,3.807 0,2.103 0,0"
             style="fill:#ebe6de;fill-opacity:1;fill-rule:nonzero;stroke:none"
             id="path354" /></g><g
           id="g356"><g
             id="g358" /><g
             id="g370"><g
               clip-path="url(#clipPath362)"
               opacity="0.199997"
               id="g368"><g
                 transform="translate(500.8887,101.9209)"
                 id="g366"><path
                   d="M 0,0 C -1.016,0 -1.932,-0.404 -2.615,-1.051 -1.932,-1.7 -1.016,-2.104 0,-2.104 h 59.706 c 1.014,0 1.933,0.404 2.614,1.053 C 61.639,-0.404 60.72,0 59.706,0 Z"
                   style="fill:#bdb2a3;fill-opacity:1;fill-rule:nonzero;stroke:none"
                   id="path364" /></g></g></g></g><g
           id="g372"
           transform="translate(441.9023,239.0547)"><path
             d="M 0,0 C -0.006,2.665 -2.201,4.862 -4.869,4.869 L -201.162,4.867 C -203.827,4.862 -206.025,2.665 -206.031,0 v -41.555 h 0.002 V -128.97 H -0.002 v 87.415 H 0 Z"
             style="fill:#d6ecf3;fill-opacity:1;fill-rule:nonzero;stroke:none"
             id="path374" /></g><g
           id="g376"
           transform="translate(440.667,110.6016)"><path
             d="m 0,0 h -203.559 v 86.37 h -0.002 v 41.056 c 0.005,2.633 2.176,4.805 4.809,4.809 l 193.94,10e-4 c 2.635,-0.005 4.807,-2.177 4.813,-4.81 l 0,-41.056 H 0 Z m 3.206,127.426 c -0.008,4.421 -3.596,8.009 -8.018,8.015 l -193.94,-0.002 c -4.419,-0.004 -8.008,-3.592 -8.013,-8.013 v -41.056 0 -89.575 H 3.206 Z"
             style="fill:#111f53;fill-opacity:1;fill-rule:nonzero;stroke:none"
             id="path378" /></g><g
           id="g380"
           transform="translate(461.2832,107.4287)"><path
             d="M 0,0 C 0,0.892 -0.732,1.624 -1.623,1.624 H -242.54 c -0.894,0 -1.624,-0.732 -1.624,-1.624 v -7.037 c 0,-0.895 0.73,-1.626 1.624,-1.626 H -1.623 c 0.891,0 1.623,0.731 1.623,1.626 z"
             style="fill:#d6ecf3;fill-opacity:1;fill-rule:nonzero;stroke:none"
             id="path382" /></g><g
           id="g384"
           transform="translate(217.1191,103.623)"><path
             d="m 0,0 v -3.231 c 0,-0.895 0.73,-1.626 1.624,-1.626 h 240.917 c 0.891,0 1.623,0.731 1.623,1.626 V 0 Z"
             style="fill:#b6d0d6;fill-opacity:1;fill-rule:nonzero;stroke:none"
             id="path386" /></g><g
           id="g388"
           transform="translate(435.0273,118.2725)"><path
             d="m 0,0 c 0,-0.894 -0.73,-1.625 -1.625,-1.625 h -188.403 c -0.892,0 -1.623,0.731 -1.623,1.625 v 116.128 c 0,0.893 0.731,1.623 1.623,1.623 H -1.625 c 0.895,0 1.625,-0.73 1.625,-1.623 z"
             style="fill:#f3fafe;fill-opacity:1;fill-rule:nonzero;stroke:none"
             id="path390" /></g><g
           id="g392"
           transform="translate(218.7202,107.4287)"><path
             d="M 0,0 V -7.037 L 0.023,-7.059 240.94,-7.06 c 0,10e-4 0.019,0.023 0.019,0.023 V 0 L 240.94,0.021 0.023,0.023 C 0.023,0.021 0,0 0,0 m 0.023,-10.264 c -1.787,0.004 -3.221,1.442 -3.228,3.227 V 0 c 0.007,1.785 1.441,3.221 3.228,3.228 L 240.94,3.227 C 242.725,3.221 244.159,1.786 244.166,0 v -7.037 c -0.007,-1.785 -1.441,-3.223 -3.226,-3.229 z"
             style="fill:#111f53;fill-opacity:1;fill-rule:nonzero;stroke:none"
             id="path394" /></g><g
           id="g396"
           transform="translate(105.9038,82.8867)"><path
             d="m 0,0 v -33.472 c -1.897,1.522 -4.136,2.417 -6.542,2.417 -6.805,0 -12.322,-7.042 -12.322,-15.727 0,-0.171 0.016,-0.335 0.019,-0.502 h -0.488 V 0 Z"
             style="fill:#fb8963;fill-opacity:1;fill-rule:nonzero;stroke:none"
             id="path398" /></g><g
           id="g400"><g
             id="g402" /><g
             id="g412"><g
               clip-path="url(#clipPath406)"
               opacity="0.300003"
               id="g410"><path
                 d="M 106.658,71.567 H 85.521 v 10.718 h 21.137 z"
                 style="fill:#111f53;fill-opacity:1;fill-rule:nonzero;stroke:none"
                 id="path408" /></g></g></g><g
           id="g414"
           transform="translate(105.7388,39.9111)"><path
             d="m 0,0 c 0.881,0 1.603,0.719 1.603,1.602 v 40.072 c 0,0.881 -0.722,1.602 -1.603,1.602 h -0.001 c -0.882,0 -1.603,-0.721 -1.603,-1.602 V 1.602 C -1.604,0.719 -0.883,0 -0.001,0 Z"
             style="fill:#111f53;fill-opacity:1;fill-rule:nonzero;stroke:none"
             id="path416" /></g><g
           id="g418"
           transform="translate(86.5713,31.2959)"><path
             d="m 0,0 c 0.882,0 1.604,0.723 1.604,1.602 v 48.687 c 0,0.881 -0.722,1.604 -1.604,1.604 -0.881,0 -1.603,-0.723 -1.603,-1.604 V 1.602 C -1.603,0.723 -0.881,0 0,0"
             style="fill:#111f53;fill-opacity:1;fill-rule:nonzero;stroke:none"
             id="path420" /></g><g
           id="g422"
           transform="translate(86.5713,21.9453)"><path
             d="m 0,0 c 0.881,0 1.602,0.722 1.602,1.603 v 1.136 c 0,0.882 -0.721,1.602 -1.602,1.602 -0.881,0 -1.603,-0.72 -1.603,-1.602 V 1.603 C -1.603,0.722 -0.881,0 0,0"
             style="fill:#111f53;fill-opacity:1;fill-rule:nonzero;stroke:none"
             id="path424" /></g><g
           id="g426"
           transform="translate(105.7388,21.9453)"><path
             d="m 0,0 c 0.881,0 1.603,0.722 1.603,1.603 v 9.148 c 0,0.882 -0.722,1.603 -1.603,1.603 -0.881,0 -1.604,-0.721 -1.604,-1.603 V 1.603 C -1.604,0.722 -0.881,0 0,0"
             style="fill:#111f53;fill-opacity:1;fill-rule:nonzero;stroke:none"
             id="path428" /></g><g
           id="g430"
           transform="translate(504.2119,82.8867)"><path
             d="m 0,0 v -33.472 c 1.896,1.522 4.136,2.417 6.542,2.417 6.807,0 12.321,-7.042 12.321,-15.727 0,-0.171 -0.014,-0.335 -0.018,-0.502 h 0.488 V 0 Z"
             style="fill:#fb8963;fill-opacity:1;fill-rule:nonzero;stroke:none"
             id="path432" /></g><g
           id="g434"><g
             id="g436" /><g
             id="g446"><g
               clip-path="url(#clipPath440)"
               opacity="0.300003"
               id="g444"><path
                 d="M 525,71.567 H 503.861 V 82.285 H 525 Z"
                 style="fill:#111f53;fill-opacity:1;fill-rule:nonzero;stroke:none"
                 id="path442" /></g></g></g><g
           id="g448"
           transform="translate(504.376,39.9111)"><path
             d="m 0,0 c -0.881,0 -1.603,0.719 -1.603,1.602 v 40.072 c 0,0.881 0.722,1.602 1.603,1.602 h 0.001 c 0.883,0 1.603,-0.721 1.603,-1.602 V 1.602 C 1.604,0.719 0.884,0 0.001,0 Z"
             style="fill:#111f53;fill-opacity:1;fill-rule:nonzero;stroke:none"
             id="path450" /></g><g
           id="g452"
           transform="translate(523.543,31.2959)"><path
             d="m 0,0 c -0.883,0 -1.604,0.723 -1.604,1.602 v 48.687 c 0,0.881 0.721,1.604 1.604,1.604 h 0.002 c 0.881,0 1.603,-0.723 1.603,-1.604 V 1.602 C 1.605,0.723 0.883,0 0.002,0 Z"
             style="fill:#111f53;fill-opacity:1;fill-rule:nonzero;stroke:none"
             id="path454" /></g><g
           id="g456"
           transform="translate(523.5449,21.9453)"><path
             d="m 0,0 c -0.883,0 -1.604,0.722 -1.604,1.603 v 1.136 c 0,0.882 0.721,1.602 1.604,1.602 0.881,0 1.601,-0.72 1.601,-1.602 V 1.603 C 1.601,0.722 0.881,0 0,0"
             style="fill:#111f53;fill-opacity:1;fill-rule:nonzero;stroke:none"
             id="path458" /></g><g
           id="g460"
           transform="translate(504.376,21.9453)"><path
             d="m 0,0 c -0.881,0 -1.603,0.722 -1.603,1.603 v 9.148 c 0,0.882 0.722,1.603 1.603,1.603 0.884,0 1.604,-0.721 1.604,-1.603 V 1.603 C 1.604,0.722 0.884,0 0,0"
             style="fill:#111f53;fill-opacity:1;fill-rule:nonzero;stroke:none"
             id="path462" /></g><g
           id="g464"
           transform="translate(577.0039,89.2627)"><path
             d="m 0,0 c 0,-3.526 -2.883,-6.41 -6.408,-6.41 h -531.074 c -3.527,0 -6.413,2.884 -6.413,6.41 v 2.673 c 0,3.526 2.886,6.411 6.413,6.411 H -6.408 C -2.883,9.084 0,6.199 0,2.673 Z"
             style="fill:#ffa485;fill-opacity:1;fill-rule:nonzero;stroke:none"
             id="path466" /></g><g
           id="g468"
           transform="translate(33.1094,89.3975)"><path
             d="m 0,0 v -0.135 c 0,-3.526 2.886,-6.41 6.412,-6.41 h 531.074 c 3.526,0 6.409,2.884 6.409,6.41 V 0 Z"
             style="fill:#fb8963;fill-opacity:1;fill-rule:nonzero;stroke:none"
             id="path470" /></g><g
           id="g472"
           transform="translate(34.7124,91.9355)"><path
             d="m 0,0 v -2.672 c 0.006,-2.634 2.174,-4.803 4.809,-4.807 h 531.074 c 2.633,0.004 4.803,2.173 4.807,4.807 V 0 c -0.004,2.634 -2.174,4.806 -4.807,4.81 L 4.809,4.81 C 2.174,4.806 0.006,2.634 0,0 M 4.809,-10.687 C 0.39,-10.679 -3.2,-7.091 -3.204,-2.672 V 0 C -3.2,4.419 0.39,8.009 4.809,8.016 L 535.883,8.014 C 540.3,8.009 543.889,4.419 543.897,0 v -2.672 c -0.008,-4.419 -3.597,-8.007 -8.014,-8.015 z"
             style="fill:#111f53;fill-opacity:1;fill-rule:nonzero;stroke:none"
             id="path474" /></g><g
           id="g476"
           transform="translate(66.0137,127.751)"><path
             d="m 0,0 c -5.29,0 -9.618,-4.33 -9.618,-9.619 v -6.811 c 0,-5.289 4.328,-9.618 9.618,-9.618 H 73.33 V 0 Z"
             style="fill:#d6ecf3;fill-opacity:1;fill-rule:nonzero;stroke:none"
             id="path478" /></g><g
           id="g480"
           transform="translate(66.0137,101.7031)"><path
             d="M 0,0 H 73.33 V 5.344 H -8.598 C -7.016,2.187 -3.755,0 0,0"
             style="fill:#98ccd7;fill-opacity:1;fill-rule:nonzero;stroke:none"
             id="path482" /></g><g
           id="g484"
           transform="translate(72.2202,112.9912)"><path
             d="m 0,0 c -0.882,0 -1.603,0.721 -1.603,1.604 0,0.881 0.721,1.603 1.603,1.603 h 31.193 c 0.882,0 1.602,-0.722 1.602,-1.603 C 32.795,0.721 32.075,0 31.193,0 Z"
             style="fill:#111f53;fill-opacity:1;fill-rule:nonzero;stroke:none"
             id="path486" /></g><g
           id="g488"
           transform="translate(110.8882,112.9912)"><path
             d="m 0,0 c -0.882,0 -1.603,0.721 -1.603,1.604 0,0.881 0.721,1.603 1.603,1.603 H 2.674 C 3.557,3.207 4.278,2.485 4.278,1.604 4.278,0.721 3.557,0 2.674,0 Z"
             style="fill:#111f53;fill-opacity:1;fill-rule:nonzero;stroke:none"
             id="path490" /></g><g
           id="g492"
           transform="translate(129.9248,112.9912)"><path
             d="m 0,0 c -0.882,0 -1.602,0.721 -1.602,1.604 0,0.881 0.72,1.603 1.602,1.603 H 8.151 C 9.032,3.207 9.754,2.485 9.754,1.604 9.754,0.721 9.032,0 8.151,0 Z"
             style="fill:#111f53;fill-opacity:1;fill-rule:nonzero;stroke:none"
             id="path494" /></g><g
           id="g496"
           transform="translate(67.353,103.041)"><path
             d="m 0,0 c -5.278,0.01 -9.608,4.339 -9.616,9.616 l -0.002,4.407 c 0.01,5.28 4.34,9.609 9.618,9.619 H 70.052 V 0 Z m 77.938,0 h -4.679 v 23.642 h 4.679 c 0.881,0 1.603,0.72 1.603,1.602 0,0.88 -0.722,1.603 -1.603,1.603 H 43.874 v 10e-4 H 0 C -7.064,26.841 -12.818,21.089 -12.824,14.023 V 9.616 C -12.818,2.554 -7.064,-3.198 0,-3.207 h 77.938 c 0.881,0 1.603,0.722 1.603,1.603 v 0.001 C 79.541,-0.722 78.819,0 77.938,0"
             style="fill:#111f53;fill-opacity:1;fill-rule:nonzero;stroke:none"
             id="path498" /></g><g
           id="g500"
           transform="translate(87.3169,96.6455)"><path
             d="M 0,0 -8.064,4.059 -16.028,0 V 17.949 H 0 Z"
             style="fill:#ff5f6e;fill-opacity:1;fill-rule:nonzero;stroke:none"
             id="path502" /></g><g
           id="g504"
           transform="translate(85.7139,99.248)"><path
             d="M 0,0 V 13.743 H -12.822 V 0.015 l 6.357,3.236 z m 1.604,-2.603 0.719,1.435 z M -16.028,16.95 H 3.206 V -2.603 -5.202 l -9.663,4.863 -9.571,-4.877 z"
             style="fill:#111f53;fill-opacity:1;fill-rule:nonzero;stroke:none"
             id="path506" /></g><g
           id="g508"
           transform="translate(123.5664,151.4844)"><path
             d="m 0,0 c 4.107,0 7.467,-3.36 7.467,-7.468 v -5.289 c 0,-4.108 -3.36,-7.469 -7.467,-7.469 H -56.938 V 0 Z"
             style="fill:#d6ecf3;fill-opacity:1;fill-rule:nonzero;stroke:none"
             id="path510" /></g><g
           id="g512"
           transform="translate(123.5664,131.2588)"><path
             d="M 0,0 H -56.938 V 4.149 H 6.677 C 5.449,1.697 2.917,0 0,0"
             style="fill:#98ccd7;fill-opacity:1;fill-rule:nonzero;stroke:none"
             id="path514" /></g><g
           id="g516"
           transform="translate(118.748,140.0254)"><path
             d="M 0,0 C 0.684,0 1.245,0.56 1.245,1.243 V 1.245 C 1.245,1.93 0.684,2.489 0,2.489 h -24.221 c -0.685,0 -1.245,-0.559 -1.245,-1.244 V 1.243 C -25.466,0.56 -24.906,0 -24.221,0 Z"
             style="fill:#111f53;fill-opacity:1;fill-rule:nonzero;stroke:none"
             id="path518" /></g><g
           id="g520"
           transform="translate(88.7222,140.0254)"><path
             d="M 0,0 C 0.685,0 1.245,0.56 1.245,1.243 V 1.245 C 1.245,1.93 0.685,2.489 0,2.489 h -2.078 c -0.684,0 -1.244,-0.559 -1.244,-1.244 V 1.243 C -3.322,0.56 -2.762,0 -2.078,0 Z"
             style="fill:#111f53;fill-opacity:1;fill-rule:nonzero;stroke:none"
             id="path522" /></g><g
           id="g524"
           transform="translate(73.9409,140.0254)"><path
             d="M 0,0 C 0.685,0 1.243,0.56 1.243,1.243 V 1.245 C 1.243,1.93 0.685,2.489 0,2.489 h -6.33 c -0.684,0 -1.244,-0.559 -1.244,-1.244 V 1.243 C -7.574,0.56 -7.014,0 -6.33,0 Z"
             style="fill:#111f53;fill-opacity:1;fill-rule:nonzero;stroke:none"
             id="path526" /></g><g
           id="g528"
           transform="translate(68.1304,132.2979)"><path
             d="m 0,0 v 18.357 h 54.397 c 4.1,-0.006 7.46,-3.367 7.468,-7.468 L 61.864,7.468 C 61.857,3.369 58.497,0.009 54.397,0 Z m -7.366,-1.244 v -0.002 c 0,-0.684 0.56,-1.243 1.244,-1.243 h 60.519 c 5.486,0.006 9.953,4.471 9.957,9.957 v 3.421 c -0.004,5.487 -4.471,9.955 -9.957,9.958 H 20.329 V 20.846 H -6.122 c -0.684,0 -1.244,-0.56 -1.244,-1.243 0,-0.685 0.56,-1.246 1.244,-1.246 h 3.634 V 0 h -3.634 c -0.684,0 -1.244,-0.56 -1.244,-1.244"
             style="fill:#111f53;fill-opacity:1;fill-rule:nonzero;stroke:none"
             id="path530" /></g><g
           id="g532"
           transform="translate(107.0249,127.333)"><path
             d="M 0,0 6.261,3.15 12.445,0 V 13.936 H 0 Z"
             style="fill:#ff5f6e;fill-opacity:1;fill-rule:nonzero;stroke:none"
             id="path534" /></g><g
           id="g536"
           transform="translate(108.27,129.3535)"><path
             d="M 0,0 5.021,2.525 9.957,0.011 V 10.672 H 0 Z m -1.245,-2.021 -0.56,1.114 z m 13.69,15.182 V -4.05 l -7.431,3.786 -7.503,-3.775 v 2.018 15.182 z"
             style="fill:#111f53;fill-opacity:1;fill-rule:nonzero;stroke:none"
             id="path538" /></g><g
           id="g540"><g
             id="g542" /><g
             id="g574"><g
               clip-path="url(#clipPath546)"
               opacity="0.300003"
               id="g572"><g
                 transform="translate(419.5859,282.4697)"
                 id="g550"><path
                   d="m 0,0 c 0,-4.719 -3.861,-8.581 -8.582,-8.581 h -51.489 c -4.719,0 -8.58,3.862 -8.58,8.581 v 13.761 c 0,4.718 3.861,8.582 8.58,8.582 H -8.582 C -3.861,22.343 0,18.479 0,13.761 Z"
                   style="fill:#d6ecf3;fill-opacity:1;fill-rule:nonzero;stroke:none"
                   id="path548" /></g><g
                 transform="translate(419.5859,281.0161)"
                 id="g554"><path
                   d="m 0,0 c 0,-3.921 -3.594,-7.127 -7.985,-7.127 h -47.913 c -4.393,0 -7.985,3.206 -7.985,7.127 v 11.425 c 0,3.92 3.592,7.127 7.985,7.127 H -7.985 C -3.594,18.552 0,15.345 0,11.425 Z"
                   style="fill:#b6d0d6;fill-opacity:1;fill-rule:nonzero;stroke:none"
                   id="path552" /></g><g
                 transform="translate(359.5146,303.3809)"
                 id="g558"><path
                   d="m 0,0 c -3.923,-0.006 -7.145,-3.227 -7.149,-7.15 v -13.759 c 0.004,-3.925 3.226,-7.145 7.149,-7.154 l 51.489,0.003 c 3.923,0.006 7.145,3.226 7.153,7.151 V -7.15 c -0.008,3.923 -3.23,7.144 -7.153,7.152 z M -10.011,-20.909 V -7.15 C -10.006,-1.634 -5.515,2.856 0,2.861 L 51.489,2.862 C 57.005,2.856 61.496,-1.634 61.501,-7.15 V -20.909 C 61.496,-26.427 57.005,-30.916 51.489,-30.921 L 0,-30.924 c -5.515,0.008 -10.006,4.497 -10.011,10.015"
                   style="fill:#111f53;fill-opacity:1;fill-rule:nonzero;stroke:none"
                   id="path556" /></g><g
                 transform="translate(451.1396,313.3984)"
                 id="g562"><path
                   d="m 0,0 c 0,-4.719 -3.861,-8.581 -8.581,-8.581 h -51.488 c -4.719,0 -8.581,3.862 -8.581,8.581 v 13.761 c 0,4.718 3.862,8.581 8.581,8.581 H -8.581 C -3.861,22.342 0,18.479 0,13.761 Z"
                   style="fill:#d6ecf3;fill-opacity:1;fill-rule:nonzero;stroke:none"
                   id="path560" /></g><g
                 transform="translate(451.1396,311.9424)"
                 id="g566"><path
                   d="m 0,0 c 0,-3.918 -3.593,-7.125 -7.983,-7.125 h -47.916 c -4.389,0 -7.983,3.207 -7.983,7.125 v 11.428 c 0,3.92 3.594,7.125 7.983,7.125 H -7.983 C -3.593,18.553 0,15.348 0,11.428 Z"
                   style="fill:#b6d0d6;fill-opacity:1;fill-rule:nonzero;stroke:none"
                   id="path564" /></g><g
                 transform="translate(391.0703,334.3101)"
                 id="g570"><path
                   d="M 0,0 C -3.924,-0.006 -7.145,-3.227 -7.15,-7.151 V -20.91 c 0.005,-3.924 3.226,-7.146 7.15,-7.153 l 51.488,0.002 c 3.922,0.005 7.144,3.227 7.152,7.151 v 13.759 c -0.008,3.924 -3.23,7.145 -7.152,7.152 z m -10.012,-20.91 -10e-4,13.759 C -10.006,-1.635 -5.518,2.856 0,2.861 L 51.488,2.863 C 57.004,2.856 61.494,-1.635 61.5,-7.151 V -20.91 C 61.494,-26.427 57.004,-30.917 51.488,-30.922 H 0 c -5.518,0.005 -10.006,4.495 -10.012,10.012"
                   style="fill:#111f53;fill-opacity:1;fill-rule:nonzero;stroke:none"
                   id="path568" /></g></g></g></g><g
           id="g576"><g
             id="g578" /><g
             id="g622"><g
               clip-path="url(#clipPath582)"
               opacity="0.300003"
               id="g620"><g
                 transform="translate(311.2261,10.0127)"
                 id="g586"><path
                   d="M 0,0 C 0,-4.72 -3.862,-8.581 -8.581,-8.581 H -60.07 c -4.719,0 -8.581,3.861 -8.581,8.581 v 13.761 c 0,4.719 3.862,8.581 8.581,8.581 H -8.581 C -3.862,22.342 0,18.48 0,13.761 Z"
                   style="fill:#d6ecf3;fill-opacity:1;fill-rule:nonzero;stroke:none"
                   id="path584" /></g><g
                 transform="translate(311.2261,8.5576)"
                 id="g590"><path
                   d="m 0,0 c 0,-3.92 -3.593,-7.126 -7.985,-7.126 h -47.913 c -4.392,0 -7.985,3.206 -7.985,7.126 v 11.426 c 0,3.919 3.593,7.127 7.985,7.127 H -7.985 C -3.593,18.553 0,15.345 0,11.426 Z"
                   style="fill:#b6d0d6;fill-opacity:1;fill-rule:nonzero;stroke:none"
                   id="path588" /></g><g
                 transform="translate(251.1558,30.9238)"
                 id="g594"><path
                   d="m 0,0 c -3.924,-0.006 -7.145,-3.229 -7.151,-7.15 v -13.76 c 0.006,-3.924 3.227,-7.147 7.151,-7.153 l 51.489,0.003 c 3.922,0.003 7.143,3.226 7.15,7.15 v 13.76 c -0.007,3.921 -3.228,7.144 -7.15,7.153 z m -10.011,-20.91 -0.001,13.76 C -10.006,-1.634 -5.516,2.854 0,2.86 H 51.489 C 57.004,2.854 61.495,-1.634 61.5,-7.15 V -20.91 C 61.495,-26.426 57.004,-30.918 51.489,-30.921 L 0,-30.924 c -5.516,0.006 -10.006,4.498 -10.011,10.014"
                   style="fill:#111f53;fill-opacity:1;fill-rule:nonzero;stroke:none"
                   id="path592" /></g><g
                 transform="translate(280.5645,40.9404)"
                 id="g598"><path
                   d="m 0,0 c 0,-4.719 -3.859,-8.582 -8.58,-8.582 h -51.489 c -4.719,0 -8.58,3.863 -8.58,8.582 v 13.762 c 0,4.718 3.861,8.58 8.58,8.58 H -8.58 c 4.721,0 8.58,-3.862 8.58,-8.58 z"
                   style="fill:#d6ecf3;fill-opacity:1;fill-rule:nonzero;stroke:none"
                   id="path596" /></g><g
                 transform="translate(280.5645,39.4863)"
                 id="g602"><path
                   d="m 0,0 c 0,-3.919 -3.592,-7.128 -7.984,-7.128 h -47.912 c -4.394,0 -7.985,3.209 -7.985,7.128 v 11.427 c 0,3.919 3.591,7.126 7.985,7.126 H -7.984 C -3.592,18.553 0,15.346 0,11.427 Z"
                   style="fill:#b6d0d6;fill-opacity:1;fill-rule:nonzero;stroke:none"
                   id="path600" /></g><g
                 transform="translate(220.4956,61.8516)"
                 id="g606"><path
                   d="m 0,0 c -3.923,-0.006 -7.145,-3.227 -7.151,-7.149 v -13.758 c 0.006,-3.926 3.228,-7.149 7.151,-7.155 l 51.489,0.002 c 3.922,0.004 7.142,3.227 7.151,7.153 v 13.758 c -0.009,3.922 -3.229,7.143 -7.151,7.151 z m -10.01,-20.907 -0.002,13.758 C -10.007,-1.633 -5.517,2.856 0,2.862 H 51.489 C 57.003,2.856 61.495,-1.633 61.5,-7.149 v -13.758 c -0.005,-5.52 -4.497,-10.01 -10.011,-10.012 L 0,-30.921 c -5.517,0.004 -10.007,4.494 -10.01,10.014"
                   style="fill:#111f53;fill-opacity:1;fill-rule:nonzero;stroke:none"
                   id="path604" /></g><g
                 transform="translate(349.4551,40.9404)"
                 id="g610"><path
                   d="M 0,0 C 0,-4.719 -3.863,-8.582 -8.582,-8.582 H -60.07 c -4.72,0 -8.581,3.863 -8.581,8.582 v 13.762 c 0,4.718 3.861,8.58 8.581,8.58 H -8.582 C -3.863,22.342 0,18.48 0,13.762 Z"
                   style="fill:#d6ecf3;fill-opacity:1;fill-rule:nonzero;stroke:none"
                   id="path608" /></g><g
                 transform="translate(349.4551,39.4863)"
                 id="g614"><path
                   d="m 0,0 c 0,-3.919 -3.595,-7.128 -7.986,-7.128 h -47.912 c -4.392,0 -7.986,3.209 -7.986,7.128 v 11.427 c 0,3.919 3.594,7.126 7.986,7.126 H -7.986 C -3.595,18.553 0,15.346 0,11.427 Z"
                   style="fill:#b6d0d6;fill-opacity:1;fill-rule:nonzero;stroke:none"
                   id="path612" /></g><g
                 transform="translate(289.3853,61.8516)"
                 id="g618"><path
                   d="m 0,0 c -3.925,-0.006 -7.146,-3.227 -7.152,-7.149 v -13.758 c 0.006,-3.926 3.227,-7.149 7.152,-7.155 l 51.488,0.002 c 3.922,0.004 7.142,3.227 7.152,7.153 v 13.758 c -0.01,3.922 -3.23,7.143 -7.152,7.151 z m -10.012,-20.907 -10e-4,13.758 C -10.007,-1.633 -5.517,2.856 0,2.862 H 51.488 C 57.003,2.856 61.494,-1.633 61.5,-7.149 v -13.758 c -0.006,-5.52 -4.497,-10.01 -10.012,-10.012 L 0,-30.921 c -5.517,0.004 -10.007,4.494 -10.012,10.014"
                   style="fill:#111f53;fill-opacity:1;fill-rule:nonzero;stroke:none"
                   id="path616" /></g></g></g></g><g
           id="g624"><g
             id="g626" /><g
             id="g638"><g
               clip-path="url(#clipPath630)"
               opacity="0.199997"
               id="g636"><g
                 transform="translate(278.1152,236.0234)"
                 id="g634"><path
                   d="m 0,0 h -33.116 c -0.892,0 -1.623,-0.729 -1.623,-1.623 v -116.128 c 0,-0.894 0.731,-1.625 1.623,-1.625 h 153.052 z"
                   style="fill:#ffffff;fill-opacity:1;fill-rule:nonzero;stroke:none"
                   id="path632" /></g></g></g></g><g
           id="g640"
           transform="translate(244.9771,234.4004)"><path
             d="m 0,0 v -116.128 l 0.022,-0.021 h 188.403 l 0.021,0.021 V 0 c 0,0.001 -0.019,0.022 -0.021,0.022 H 0.022 C 0.022,0.022 0,0.001 0,0 m 0.022,-119.354 c -1.785,0.007 -3.22,1.439 -3.228,3.226 L -3.206,0 c 0.008,1.787 1.443,3.221 3.228,3.227 h 188.403 c 1.783,-0.006 3.221,-1.44 3.227,-3.227 v -116.128 c -0.008,-1.787 -1.444,-3.219 -3.227,-3.226 z"
             style="fill:#111f53;fill-opacity:1;fill-rule:nonzero;stroke:none"
             id="path642" /></g></g></g></g></svg>
